<?xml version="1.0" encoding="utf-8"?>
<!-- Generated by IcoMoon.io -->
<!DOCTYPE svg PUBLIC "-//W3C//DTD SVG 1.1//EN" "http://www.w3.org/Graphics/SVG/1.1/DTD/svg11.dtd">
<svg version="1.1" xmlns="http://www.w3.org/2000/svg" xmlns:xlink="http://www.w3.org/1999/xlink" width="32" height="32" viewBox="0 0 32 32">
<g id="icomoon-ignore">
	<line stroke-width="1" x1="" y1="" x2="" y2="" stroke="#449FDB" opacity=""></line>
</g>
	<path d="M17.813 21.973v1.707c0 0.229-0.085 0.432-0.256 0.597s-0.368 0.256-0.597 0.256h-16.107c-0.229 0-0.432-0.085-0.597-0.256s-0.256-0.368-0.256-0.597v-1.707c0-0.229 0.085-0.432 0.256-0.597s0.368-0.256 0.597-0.256h16.107c0.229 0 0.432 0.085 0.597 0.256s0.256 0.368 0.256 0.597zM17.813 17.28v1.707c0 0.229-0.085 0.432-0.256 0.597s-0.368 0.256-0.597 0.256h-16.107c-0.229 0-0.432-0.085-0.597-0.256s-0.256-0.368-0.256-0.597v-1.707c0-0.229 0.085-0.432 0.256-0.597s0.368-0.256 0.597-0.256h16.107c0.229 0 0.432 0.085 0.597 0.256s0.256 0.368 0.256 0.597zM17.813 12.587v1.707c0 0.229-0.085 0.432-0.256 0.597-0.171 0.171-0.368 0.256-0.597 0.256h-16.107c-0.229 0-0.432-0.085-0.597-0.256-0.171-0.171-0.256-0.368-0.256-0.597v-1.707c0-0.229 0.085-0.432 0.256-0.597s0.368-0.256 0.597-0.256h16.107c0.229 0 0.432 0.085 0.597 0.256s0.256 0.368 0.256 0.597z" fill="#000000"></path>
	<path d="M28.869 18.816c0.069 0.171 0.048 0.325-0.064 0.469l-4.667 5.12c-0.091 0.091-0.192 0.133-0.309 0.133-0.123 0-0.229-0.043-0.32-0.133l-4.736-5.12c-0.117-0.144-0.139-0.299-0.064-0.469 0.080-0.171 0.208-0.256 0.384-0.256h2.987v-11.147c0-0.123 0.043-0.224 0.117-0.309s0.181-0.117 0.309-0.117h2.56c0.123 0 0.224 0.043 0.309 0.117s0.117 0.181 0.117 0.309v11.147h2.987c0.187 0 0.315 0.085 0.389 0.256z" fill="#000000"></path>
	<path d="M17.813 7.867v1.707c0 0.229-0.085 0.432-0.256 0.597s-0.368 0.256-0.597 0.256h-16.107c-0.229 0-0.432-0.085-0.597-0.256s-0.256-0.368-0.256-0.597v-1.707c0-0.229 0.085-0.432 0.256-0.597s0.368-0.256 0.597-0.256h16.107c0.229 0 0.432 0.085 0.597 0.256s0.256 0.368 0.256 0.597z" fill="#000000"></path>
</svg>
