<?xml version="1.0" encoding="utf-8"?>
<!-- Generated by IcoMoon.io -->
<!DOCTYPE svg PUBLIC "-//W3C//DTD SVG 1.1//EN" "http://www.w3.org/Graphics/SVG/1.1/DTD/svg11.dtd">
<svg version="1.1" xmlns="http://www.w3.org/2000/svg" xmlns:xlink="http://www.w3.org/1999/xlink" width="32" height="32" viewBox="0 0 32 32">
<g id="icomoon-ignore">
	<line stroke-width="1" x1="" y1="" x2="" y2="" stroke="#449FDB" opacity=""></line>
</g>
	<path d="M11.148 4.803h-3.359c-2.053 0-2.986 0.933-2.986 2.986v3.359c0 2.053 0.933 2.986 2.986 2.986h3.359c2.053 0 2.986-0.933 2.986-2.986v-3.359c0-2.053-0.933-2.986-2.986-2.986zM24.211 4.803h-3.359c-2.053 0-2.986 0.933-2.986 2.986v3.359c0 2.053 0.933 2.986 2.986 2.986h3.359c2.053 0 2.986-0.933 2.986-2.986v-3.359c0-2.053-0.933-2.986-2.986-2.986zM11.148 17.866h-3.359c-2.053 0-2.986 0.933-2.986 2.986v3.359c0 2.053 0.933 2.986 2.986 2.986h3.359c2.053 0 2.986-0.933 2.986-2.986v-3.359c0-2.053-0.933-2.986-2.986-2.986zM24.211 17.866h-3.359c-2.053 0-2.986 0.933-2.986 2.986v3.359c0 2.053 0.933 2.986 2.986 2.986h3.359c2.053 0 2.986-0.933 2.986-2.986v-3.359c0-2.053-0.933-2.986-2.986-2.986z" fill="#000000"></path>
</svg>
