<svg style="display: none;"><symbol viewBox="0 0 30 32" id="shape-wrench"><title>wrench</title> <g id="svgstoree41097b02472c1867db41af7a7bdf4ccicomoon-ignore"> <line stroke-width="1" x1="" y1="" x2="" y2="" stroke="#449FDB" opacity=""/> </g> <path d="M6.857 26.286q0-0.464-0.339-0.804t-0.804-0.339-0.804 0.339-0.339 0.804 0.339 0.804 0.804 0.339 0.804-0.339 0.339-0.804zM18.357 18.786l-12.179 12.179q-0.661 0.661-1.607 0.661-0.929 0-1.625-0.661l-1.893-1.929q-0.679-0.643-0.679-1.607 0-0.946 0.679-1.625l12.161-12.161q0.696 1.75 2.045 3.098t3.098 2.045zM29.679 11.018q0 0.696-0.411 1.893-0.839 2.393-2.938 3.884t-4.616 1.491q-3.304 0-5.652-2.348t-2.348-5.652 2.348-5.652 5.652-2.348q1.036 0 2.17 0.295t1.92 0.83q0.286 0.196 0.286 0.5t-0.286 0.5l-5.232 3.018v4l3.446 1.911q0.089-0.054 1.411-0.866t2.42-1.446 1.259-0.634q0.268 0 0.42 0.179t0.152 0.446z" fill="#000000"/> </symbol></svg>