<svg style="display: none;"><symbol viewBox="0 0 32 32" id="shape-arrows"><title>arrows</title> <g id="svgstore6a235345e0590cfab3a5cfb97cbcdc85icomoon-ignore"> <line stroke-width="1" x1="" y1="" x2="" y2="" stroke="#449FDB" opacity=""/> </g> <path d="M32 16q0 0.464-0.339 0.804l-4.571 4.571q-0.339 0.339-0.804 0.339t-0.804-0.339-0.339-0.804v-2.286h-6.857v6.857h2.286q0.464 0 0.804 0.339t0.339 0.804-0.339 0.804l-4.571 4.571q-0.339 0.339-0.804 0.339t-0.804-0.339l-4.571-4.571q-0.339-0.339-0.339-0.804t0.339-0.804 0.804-0.339h2.286v-6.857h-6.857v2.286q0 0.464-0.339 0.804t-0.804 0.339-0.804-0.339l-4.571-4.571q-0.339-0.339-0.339-0.804t0.339-0.804l4.571-4.571q0.339-0.339 0.804-0.339t0.804 0.339 0.339 0.804v2.286h6.857v-6.857h-2.286q-0.464 0-0.804-0.339t-0.339-0.804 0.339-0.804l4.571-4.571q0.339-0.339 0.804-0.339t0.804 0.339l4.571 4.571q0.339 0.339 0.339 0.804t-0.339 0.804-0.804 0.339h-2.286v6.857h6.857v-2.286q0-0.464 0.339-0.804t0.804-0.339 0.804 0.339l4.571 4.571q0.339 0.339 0.339 0.804z" fill="#000000"/> </symbol><symbol viewBox="0 0 32 32" id="shape-bars"><title>bars</title> <g id="svgstore3e674bbe1a2ad23c9ca9a6969f7019f7icomoon-ignore"> <line stroke-width="1" x1="" y1="" x2="" y2="" stroke="#449FDB" opacity=""/> </g> <path d="M27.429 24v2.286q0 0.464-0.339 0.804t-0.804 0.339h-25.143q-0.464 0-0.804-0.339t-0.339-0.804v-2.286q0-0.464 0.339-0.804t0.804-0.339h25.143q0.464 0 0.804 0.339t0.339 0.804zM27.429 14.857v2.286q0 0.464-0.339 0.804t-0.804 0.339h-25.143q-0.464 0-0.804-0.339t-0.339-0.804v-2.286q0-0.464 0.339-0.804t0.804-0.339h25.143q0.464 0 0.804 0.339t0.339 0.804zM27.429 5.714v2.286q0 0.464-0.339 0.804t-0.804 0.339h-25.143q-0.464 0-0.804-0.339t-0.339-0.804v-2.286q0-0.464 0.339-0.804t0.804-0.339h25.143q0.464 0 0.804 0.339t0.339 0.804z" fill="#000000"/> </symbol><symbol viewBox="0 0 32 32" id="shape-burger-down"><title>burger-down</title> <g id="svgstoreb679d770dc80bf14f8fbd4e456893627icomoon-ignore"> <line stroke-width="1" x1="" y1="" x2="" y2="" stroke="#449FDB" opacity=""/> </g> <path d="M17.813 21.973v1.707c0 0.229-0.085 0.432-0.256 0.597s-0.368 0.256-0.597 0.256h-16.107c-0.229 0-0.432-0.085-0.597-0.256s-0.256-0.368-0.256-0.597v-1.707c0-0.229 0.085-0.432 0.256-0.597s0.368-0.256 0.597-0.256h16.107c0.229 0 0.432 0.085 0.597 0.256s0.256 0.368 0.256 0.597zM17.813 17.28v1.707c0 0.229-0.085 0.432-0.256 0.597s-0.368 0.256-0.597 0.256h-16.107c-0.229 0-0.432-0.085-0.597-0.256s-0.256-0.368-0.256-0.597v-1.707c0-0.229 0.085-0.432 0.256-0.597s0.368-0.256 0.597-0.256h16.107c0.229 0 0.432 0.085 0.597 0.256s0.256 0.368 0.256 0.597zM17.813 12.587v1.707c0 0.229-0.085 0.432-0.256 0.597-0.171 0.171-0.368 0.256-0.597 0.256h-16.107c-0.229 0-0.432-0.085-0.597-0.256-0.171-0.171-0.256-0.368-0.256-0.597v-1.707c0-0.229 0.085-0.432 0.256-0.597s0.368-0.256 0.597-0.256h16.107c0.229 0 0.432 0.085 0.597 0.256s0.256 0.368 0.256 0.597z" fill="#000000"/> <path d="M28.869 18.816c0.069 0.171 0.048 0.325-0.064 0.469l-4.667 5.12c-0.091 0.091-0.192 0.133-0.309 0.133-0.123 0-0.229-0.043-0.32-0.133l-4.736-5.12c-0.117-0.144-0.139-0.299-0.064-0.469 0.080-0.171 0.208-0.256 0.384-0.256h2.987v-11.147c0-0.123 0.043-0.224 0.117-0.309s0.181-0.117 0.309-0.117h2.56c0.123 0 0.224 0.043 0.309 0.117s0.117 0.181 0.117 0.309v11.147h2.987c0.187 0 0.315 0.085 0.389 0.256z" fill="#000000"/> <path d="M17.813 7.867v1.707c0 0.229-0.085 0.432-0.256 0.597s-0.368 0.256-0.597 0.256h-16.107c-0.229 0-0.432-0.085-0.597-0.256s-0.256-0.368-0.256-0.597v-1.707c0-0.229 0.085-0.432 0.256-0.597s0.368-0.256 0.597-0.256h16.107c0.229 0 0.432 0.085 0.597 0.256s0.256 0.368 0.256 0.597z" fill="#000000"/> </symbol><symbol viewBox="0 0 32 32" id="shape-burger-up"><title>burger-up</title> <g id="svgstoref680e353396f3c538c049562f3980f3ficomoon-ignore"> <line stroke-width="1" x1="" y1="" x2="" y2="" stroke="#449FDB" opacity=""/> </g> <path d="M17.813 21.973v1.707c0 0.229-0.085 0.432-0.256 0.597s-0.368 0.256-0.597 0.256h-16.107c-0.229 0-0.432-0.085-0.597-0.256s-0.256-0.368-0.256-0.597v-1.707c0-0.229 0.085-0.432 0.256-0.597s0.368-0.256 0.597-0.256h16.107c0.229 0 0.432 0.085 0.597 0.256s0.256 0.368 0.256 0.597zM17.813 17.28v1.707c0 0.229-0.085 0.432-0.256 0.597s-0.368 0.256-0.597 0.256h-16.107c-0.229 0-0.432-0.085-0.597-0.256s-0.256-0.368-0.256-0.597v-1.707c0-0.229 0.085-0.432 0.256-0.597s0.368-0.256 0.597-0.256h16.107c0.229 0 0.432 0.085 0.597 0.256s0.256 0.368 0.256 0.597zM17.813 12.587v1.707c0 0.229-0.085 0.432-0.256 0.597-0.171 0.171-0.368 0.256-0.597 0.256h-16.107c-0.229 0-0.432-0.085-0.597-0.256-0.171-0.171-0.256-0.368-0.256-0.597v-1.707c0-0.229 0.085-0.432 0.256-0.597s0.368-0.256 0.597-0.256h16.107c0.229 0 0.432 0.085 0.597 0.256s0.256 0.368 0.256 0.597z" fill="#000000"/> <path d="M18.709 12.704c-0.069-0.171-0.048-0.325 0.064-0.469l4.667-5.12c0.091-0.091 0.192-0.133 0.309-0.133 0.123 0 0.229 0.043 0.32 0.133l4.736 5.12c0.117 0.144 0.139 0.299 0.064 0.469-0.080 0.171-0.208 0.256-0.384 0.256h-2.987v11.147c0 0.123-0.043 0.224-0.117 0.309s-0.181 0.117-0.309 0.117h-2.56c-0.123 0-0.224-0.043-0.309-0.117s-0.117-0.181-0.117-0.309v-11.147h-2.987c-0.192 0-0.32-0.085-0.389-0.256z" fill="#000000"/> <path d="M17.813 7.867v1.707c0 0.229-0.085 0.432-0.256 0.597s-0.368 0.256-0.597 0.256h-16.107c-0.229 0-0.432-0.085-0.597-0.256s-0.256-0.368-0.256-0.597v-1.707c0-0.229 0.085-0.432 0.256-0.597s0.368-0.256 0.597-0.256h16.107c0.229 0 0.432 0.085 0.597 0.256s0.256 0.368 0.256 0.597z" fill="#000000"/> </symbol><symbol viewBox="0 0 18 32" id="shape-caret-down"><title>caret-down</title> <g id="svgstore9bdc1650638f8d0b83d9ac424cd73d8bicomoon-ignore"> <line stroke-width="1" x1="" y1="" x2="" y2="" stroke="#449FDB" opacity=""/> </g> <path d="M18.286 12.571q0 0.464-0.339 0.804l-8 8q-0.339 0.339-0.804 0.339t-0.804-0.339l-8-8q-0.339-0.339-0.339-0.804t0.339-0.804 0.804-0.339h16q0.464 0 0.804 0.339t0.339 0.804z" fill="#000000"/> </symbol><symbol viewBox="0 0 11 32" id="shape-caret-left"><title>caret-left</title> <g id="svgstoree3cfd71918ac0df288bf520fae9ac4c4icomoon-ignore"> <line stroke-width="1" x1="" y1="" x2="" y2="" stroke="#449FDB" opacity=""/> </g> <path d="M11.429 8v16q0 0.464-0.339 0.804t-0.804 0.339-0.804-0.339l-8-8q-0.339-0.339-0.339-0.804t0.339-0.804l8-8q0.339-0.339 0.804-0.339t0.804 0.339 0.339 0.804z" fill="#000000"/> </symbol><symbol viewBox="0 0 11 32" id="shape-caret-right"><title>caret-right</title> <g id="svgstoreebce92ffd4c76f58b5c6d55d5235bf98icomoon-ignore"> <line stroke-width="1" x1="" y1="" x2="" y2="" stroke="#449FDB" opacity=""/> </g> <path d="M10.286 16q0 0.464-0.339 0.804l-8 8q-0.339 0.339-0.804 0.339t-0.804-0.339-0.339-0.804v-16q0-0.464 0.339-0.804t0.804-0.339 0.804 0.339l8 8q0.339 0.339 0.339 0.804z" fill="#000000"/> </symbol><symbol viewBox="0 0 18 32" id="shape-caret-up"><title>caret-up</title> <g id="svgstore3c91634e503f52ad07414a1095c80a64icomoon-ignore"> <line stroke-width="1" x1="" y1="" x2="" y2="" stroke="#449FDB" opacity=""/> </g> <path d="M18.286 21.714q0 0.464-0.339 0.804t-0.804 0.339h-16q-0.464 0-0.804-0.339t-0.339-0.804 0.339-0.804l8-8q0.339-0.339 0.804-0.339t0.804 0.339l8 8q0.339 0.339 0.339 0.804z" fill="#000000"/> </symbol><symbol viewBox="0 0 32 32" id="shape-check"><title>check</title> <g id="svgstore072b7e3f1f7617cf6da154ac800de725icomoon-ignore"> <line stroke-width="1" x1="" y1="" x2="" y2="" stroke="#449FDB" opacity=""/> </g> <path d="M29.839 10.107q0 0.714-0.5 1.214l-15.357 15.357q-0.5 0.5-1.214 0.5t-1.214-0.5l-8.893-8.893q-0.5-0.5-0.5-1.214t0.5-1.214l2.429-2.429q0.5-0.5 1.214-0.5t1.214 0.5l5.25 5.268 11.714-11.732q0.5-0.5 1.214-0.5t1.214 0.5l2.429 2.429q0.5 0.5 0.5 1.214z" fill="#000000"/> </symbol><symbol viewBox="0 0 32 32" id="shape-edit"><title>edit</title> <g id="svgstore6febe34a1304e80c2dda4c3bb0b6c777icomoon-ignore"> <line stroke-width="1" x1="" y1="" x2="" y2="" stroke="#449FDB" opacity=""/> </g> <path d="M15.857 21.143l2.071-2.071-2.714-2.714-2.071 2.071v1h1.714v1.714h1zM23.714 8.286q-0.286-0.286-0.589 0.018l-6.25 6.25q-0.304 0.304-0.018 0.589t0.589-0.018l6.25-6.25q0.304-0.304 0.018-0.589zM25.143 18.893v3.393q0 2.125-1.509 3.634t-3.634 1.509h-14.857q-2.125 0-3.634-1.509t-1.509-3.634v-14.857q0-2.125 1.509-3.634t3.634-1.509h14.857q1.125 0 2.089 0.446 0.268 0.125 0.321 0.411 0.054 0.304-0.161 0.518l-0.875 0.875q-0.25 0.25-0.571 0.143-0.411-0.107-0.804-0.107h-14.857q-1.179 0-2.018 0.839t-0.839 2.018v14.857q0 1.179 0.839 2.018t2.018 0.839h14.857q1.179 0 2.018-0.839t0.839-2.018v-2.25q0-0.232 0.161-0.393l1.143-1.143q0.268-0.268 0.625-0.125t0.357 0.518zM23.429 5.714l5.143 5.143-12 12h-5.143v-5.143zM31.357 8.071l-1.643 1.643-5.143-5.143 1.643-1.643q0.5-0.5 1.214-0.5t1.214 0.5l2.714 2.714q0.5 0.5 0.5 1.214t-0.5 1.214z" fill="#000000"/> </symbol><symbol viewBox="0 0 32 32" id="shape-eye"><title>eye</title> <g id="svgstorec3ee2a46db11c4b0e6b6f05bbcc64b8ficomoon-ignore"> <line stroke-width="1" x1="" y1="" x2="" y2="" stroke="#449FDB" opacity=""/> </g> <path d="M29.714 17.143q-2.714-4.214-6.804-6.304 1.089 1.857 1.089 4.018 0 3.304-2.348 5.652t-5.652 2.348-5.652-2.348-2.348-5.652q0-2.161 1.089-4.018-4.089 2.089-6.804 6.304 2.375 3.661 5.955 5.83t7.759 2.17 7.759-2.17 5.955-5.83zM16.857 10.286q0-0.357-0.25-0.607t-0.607-0.25q-2.232 0-3.83 1.598t-1.598 3.83q0 0.357 0.25 0.607t0.607 0.25 0.607-0.25 0.25-0.607q0-1.536 1.089-2.625t2.625-1.089q0.357 0 0.607-0.25t0.25-0.607zM32 17.143q0 0.607-0.357 1.232-2.5 4.107-6.723 6.58t-8.92 2.473-8.92-2.482-6.723-6.571q-0.357-0.625-0.357-1.232t0.357-1.232q2.5-4.089 6.723-6.571t8.92-2.482 8.92 2.482 6.723 6.571q0.357 0.625 0.357 1.232z" fill="#000000"/> </symbol><symbol viewBox="0 0 32 32" id="shape-grid"><title>grid</title> <g id="svgstoreebba579e8c1bfbdd3217cb7df364b91eicomoon-ignore"> <line stroke-width="1" x1="" y1="" x2="" y2="" stroke="#449FDB" opacity=""/> </g> <path d="M11.148 4.803h-3.359c-2.053 0-2.986 0.933-2.986 2.986v3.359c0 2.053 0.933 2.986 2.986 2.986h3.359c2.053 0 2.986-0.933 2.986-2.986v-3.359c0-2.053-0.933-2.986-2.986-2.986zM24.211 4.803h-3.359c-2.053 0-2.986 0.933-2.986 2.986v3.359c0 2.053 0.933 2.986 2.986 2.986h3.359c2.053 0 2.986-0.933 2.986-2.986v-3.359c0-2.053-0.933-2.986-2.986-2.986zM11.148 17.866h-3.359c-2.053 0-2.986 0.933-2.986 2.986v3.359c0 2.053 0.933 2.986 2.986 2.986h3.359c2.053 0 2.986-0.933 2.986-2.986v-3.359c0-2.053-0.933-2.986-2.986-2.986zM24.211 17.866h-3.359c-2.053 0-2.986 0.933-2.986 2.986v3.359c0 2.053 0.933 2.986 2.986 2.986h3.359c2.053 0 2.986-0.933 2.986-2.986v-3.359c0-2.053-0.933-2.986-2.986-2.986z" fill="#000000"/> </symbol><symbol viewBox="0 0 30 32" id="shape-home"><title>home</title> <g id="svgstoreaa5a9c64876eae406b727f5d40881d6eicomoon-ignore"> <line stroke-width="1" x1="" y1="" x2="" y2="" stroke="#449FDB" opacity=""/> </g> <path d="M25.143 17.714v8.571q0 0.464-0.339 0.804t-0.804 0.339h-6.857v-6.857h-4.571v6.857h-6.857q-0.464 0-0.804-0.339t-0.339-0.804v-8.571q0-0.018 0.009-0.054t0.009-0.054l10.268-8.464 10.268 8.464q0.018 0.036 0.018 0.107zM29.125 16.482l-1.107 1.321q-0.143 0.161-0.375 0.196h-0.054q-0.232 0-0.375-0.125l-12.357-10.304-12.357 10.304q-0.214 0.143-0.429 0.125-0.232-0.036-0.375-0.196l-1.107-1.321q-0.143-0.179-0.125-0.42t0.196-0.384l12.839-10.696q0.571-0.464 1.357-0.464t1.357 0.464l4.357 3.643v-3.482q0-0.25 0.161-0.411t0.411-0.161h3.429q0.25 0 0.411 0.161t0.161 0.411v7.286l3.911 3.25q0.179 0.143 0.196 0.384t-0.125 0.42z" fill="#000000"/> </symbol><symbol viewBox="0 0 26 32" id="shape-house"><title>house</title> <g id="svgstorefa4ed5014daaeb9c37f8509343a74a77icomoon-ignore"> <line stroke-width="1" x1="" y1="" x2="" y2="" stroke="#449FDB" opacity=""/> </g> <path d="M12.917 0l-12.917 9.101v22.899h8.22v-9.101h9.688v9.101h8.22v-22.899z" fill="#000000"/> </symbol><symbol viewBox="0 0 32 32" id="shape-info-circle"><title>info-circle</title> <g id="svgstore32f9618aae34834a2f907d949423bf87icomoon-ignore"> <line stroke-width="1" x1="" y1="" x2="" y2="" stroke="#449FDB" opacity=""/> </g> <path d="M18.286 24.571v-2.857q0-0.25-0.161-0.411t-0.411-0.161h-1.714v-9.143q0-0.25-0.161-0.411t-0.411-0.161h-5.714q-0.25 0-0.411 0.161t-0.161 0.411v2.857q0 0.25 0.161 0.411t0.411 0.161h1.714v5.714h-1.714q-0.25 0-0.411 0.161t-0.161 0.411v2.857q0 0.25 0.161 0.411t0.411 0.161h8q0.25 0 0.411-0.161t0.161-0.411zM16 8.571v-2.857q0-0.25-0.161-0.411t-0.411-0.161h-3.429q-0.25 0-0.411 0.161t-0.161 0.411v2.857q0 0.25 0.161 0.411t0.411 0.161h3.429q0.25 0 0.411-0.161t0.161-0.411zM27.429 16q0 3.732-1.839 6.884t-4.991 4.991-6.884 1.839-6.884-1.839-4.991-4.991-1.839-6.884 1.839-6.884 4.991-4.991 6.884-1.839 6.884 1.839 4.991 4.991 1.839 6.884z" fill="#000000"/> </symbol><symbol viewBox="0 0 32 32" id="shape-pencil"><title>pencil</title> <g id="svgstore697347b7aaeb5b51926766e9c1007f5ficomoon-ignore"> <line stroke-width="1" x1="" y1="" x2="" y2="" stroke="#449FDB" opacity=""/> </g> <path d="M6.482 27.429l1.625-1.625-4.196-4.196-1.625 1.625v1.911h2.286v2.286h1.911zM15.821 10.857q0-0.393-0.393-0.393-0.179 0-0.304 0.125l-9.679 9.679q-0.125 0.125-0.125 0.304 0 0.393 0.393 0.393 0.179 0 0.304-0.125l9.679-9.679q0.125-0.125 0.125-0.304zM14.857 7.429l7.429 7.429-14.857 14.857h-7.429v-7.429zM27.054 9.143q0 0.946-0.661 1.607l-2.964 2.964-7.429-7.429 2.964-2.946q0.643-0.679 1.607-0.679 0.946 0 1.625 0.679l4.196 4.179q0.661 0.696 0.661 1.625z" fill="#000000"/> </symbol><symbol viewBox="0 0 25 32" id="shape-plus"><title>plus</title> <g id="svgstore89f4aeece3c4092a1f1f7d115f44afcbicomoon-ignore"> <line stroke-width="1" x1="" y1="" x2="" y2="" stroke="#449FDB" opacity=""/> </g> <path d="M25.143 13.143v3.429q0 0.714-0.5 1.214t-1.214 0.5h-7.429v7.429q0 0.714-0.5 1.214t-1.214 0.5h-3.429q-0.714 0-1.214-0.5t-0.5-1.214v-7.429h-7.429q-0.714 0-1.214-0.5t-0.5-1.214v-3.429q0-0.714 0.5-1.214t1.214-0.5h7.429v-7.429q0-0.714 0.5-1.214t1.214-0.5h3.429q0.714 0 1.214 0.5t0.5 1.214v7.429h7.429q0.714 0 1.214 0.5t0.5 1.214z" fill="#000000"/> </symbol><symbol viewBox="0 0 32 32" id="shape-power-off"><title>power-off</title> <g id="svgstoree375f6c0a56b4cf7c77e1067a79847a0icomoon-ignore"> <line stroke-width="1" x1="" y1="" x2="" y2="" stroke="#449FDB" opacity=""/> </g> <path d="M27.429 16q0 2.786-1.089 5.321t-2.929 4.375-4.375 2.929-5.321 1.089-5.321-1.089-4.375-2.929-2.929-4.375-1.089-5.321q0-3.25 1.438-6.125t4.045-4.821q0.768-0.571 1.705-0.446t1.491 0.893q0.571 0.75 0.438 1.688t-0.884 1.509q-1.75 1.321-2.705 3.232t-0.955 4.071q0 1.857 0.723 3.545t1.955 2.92 2.92 1.955 3.545 0.723 3.545-0.723 2.92-1.955 1.955-2.92 0.723-3.545q0-2.161-0.955-4.071t-2.705-3.232q-0.75-0.571-0.884-1.509t0.438-1.688q0.554-0.768 1.5-0.893t1.696 0.446q2.607 1.946 4.045 4.821t1.438 6.125zM16 2.286v11.429q0 0.929-0.679 1.607t-1.607 0.679-1.607-0.679-0.679-1.607v-11.429q0-0.929 0.679-1.607t1.607-0.679 1.607 0.679 0.679 1.607z" fill="#000000"/> </symbol><symbol viewBox="0 0 30 32" id="shape-search"><title>search</title> <g id="svgstore34ffb8808b6c604a52fb6dd035c6b478icomoon-ignore"> <line stroke-width="1" x1="" y1="" x2="" y2="" stroke="#449FDB" opacity=""/> </g> <path d="M20.571 14.857q0-3.304-2.348-5.652t-5.652-2.348-5.652 2.348-2.348 5.652 2.348 5.652 5.652 2.348 5.652-2.348 2.348-5.652zM29.714 29.714q0 0.929-0.679 1.607t-1.607 0.679q-0.964 0-1.607-0.679l-6.125-6.107q-3.196 2.214-7.125 2.214-2.554 0-4.884-0.991t-4.018-2.679-2.679-4.018-0.991-4.884 0.991-4.884 2.679-4.018 4.018-2.679 4.884-0.991 4.884 0.991 4.018 2.679 2.679 4.018 0.991 4.884q0 3.929-2.214 7.125l6.125 6.125q0.661 0.661 0.661 1.607z" fill="#000000"/> </symbol><symbol viewBox="0 0 32 32" id="shape-sitemap"><title>sitemap</title> <g id="svgstore18e0455cb42820f8e905531a9027e7daicomoon-ignore"> <line stroke-width="1" x1="" y1="" x2="" y2="" stroke="#449FDB" opacity=""/> </g> <path d="M32 22.286v5.714q0 0.714-0.5 1.214t-1.214 0.5h-5.714q-0.714 0-1.214-0.5t-0.5-1.214v-5.714q0-0.714 0.5-1.214t1.214-0.5h1.714v-3.429h-9.143v3.429h1.714q0.714 0 1.214 0.5t0.5 1.214v5.714q0 0.714-0.5 1.214t-1.214 0.5h-5.714q-0.714 0-1.214-0.5t-0.5-1.214v-5.714q0-0.714 0.5-1.214t1.214-0.5h1.714v-3.429h-9.143v3.429h1.714q0.714 0 1.214 0.5t0.5 1.214v5.714q0 0.714-0.5 1.214t-1.214 0.5h-5.714q-0.714 0-1.214-0.5t-0.5-1.214v-5.714q0-0.714 0.5-1.214t1.214-0.5h1.714v-3.429q0-0.929 0.679-1.607t1.607-0.679h9.143v-3.429h-1.714q-0.714 0-1.214-0.5t-0.5-1.214v-5.714q0-0.714 0.5-1.214t1.214-0.5h5.714q0.714 0 1.214 0.5t0.5 1.214v5.714q0 0.714-0.5 1.214t-1.214 0.5h-1.714v3.429h9.143q0.929 0 1.607 0.679t0.679 1.607v3.429h1.714q0.714 0 1.214 0.5t0.5 1.214z" fill="#000000"/> </symbol><symbol viewBox="0 0 28 32" id="shape-spinner"><title>spinner</title> <g id="svgstore9d858189989f4b2c280a4f68251af799icomoon-ignore"> <line stroke-width="1" x1="" y1="" x2="" y2="" stroke="#449FDB" opacity=""/> </g> <path d="M8.857 24q0 1.071-0.759 1.821t-1.813 0.75q-1.071 0-1.821-0.75t-0.75-1.821 0.75-1.821 1.821-0.75q1.054 0 1.813 0.75t0.759 1.821zM16.571 27.429q0 0.946-0.67 1.616t-1.616 0.67-1.616-0.67-0.67-1.616 0.67-1.616 1.616-0.67 1.616 0.67 0.67 1.616zM5.714 16q0 1.179-0.839 2.018t-2.018 0.839-2.018-0.839-0.839-2.018 0.839-2.018 2.018-0.839 2.018 0.839 0.839 2.018zM24.286 24q0 0.821-0.589 1.411t-1.411 0.589-1.411-0.589-0.589-1.411 0.589-1.411 1.411-0.589 1.411 0.589 0.589 1.411zM9.429 8q0 1.304-0.92 2.223t-2.223 0.92-2.223-0.92-0.92-2.223 0.92-2.223 2.223-0.92 2.223 0.92 0.92 2.223zM17.714 4.571q0 1.429-1 2.429t-2.429 1-2.429-1-1-2.429 1-2.429 2.429-1 2.429 1 1 2.429zM27.429 16q0 0.714-0.5 1.214t-1.214 0.5-1.214-0.5-0.5-1.214 0.5-1.214 1.214-0.5 1.214 0.5 0.5 1.214zM23.714 8q0 0.589-0.42 1.009t-1.009 0.42-1.009-0.42-0.42-1.009 0.42-1.009 1.009-0.42 1.009 0.42 0.42 1.009z" fill="#000000"/> </symbol><symbol viewBox="0 0 25 32" id="shape-times"><title>times</title> <g id="svgstore3deb02ef972d4fafd11d824c9d7ee9d8icomoon-ignore"> <line stroke-width="1" x1="" y1="" x2="" y2="" stroke="#449FDB" opacity=""/> </g> <path d="M23.179 23.607q0 0.714-0.5 1.214l-2.429 2.429q-0.5 0.5-1.214 0.5t-1.214-0.5l-5.25-5.25-5.25 5.25q-0.5 0.5-1.214 0.5t-1.214-0.5l-2.429-2.429q-0.5-0.5-0.5-1.214t0.5-1.214l5.25-5.25-5.25-5.25q-0.5-0.5-0.5-1.214t0.5-1.214l2.429-2.429q0.5-0.5 1.214-0.5t1.214 0.5l5.25 5.25 5.25-5.25q0.5-0.5 1.214-0.5t1.214 0.5l2.429 2.429q0.5 0.5 0.5 1.214t-0.5 1.214l-5.25 5.25 5.25 5.25q0.5 0.5 0.5 1.214z" fill="#000000"/> </symbol><symbol viewBox="0 0 25 32" id="shape-trash-o"><title>trash-o</title> <g id="svgstore79e2aa77eaf9ebc8b8ed1c88a1bf2113icomoon-ignore"> <line stroke-width="1" x1="" y1="" x2="" y2="" stroke="#449FDB" opacity=""/> </g> <path d="M9.143 13.143v10.286q0 0.25-0.161 0.411t-0.411 0.161h-1.143q-0.25 0-0.411-0.161t-0.161-0.411v-10.286q0-0.25 0.161-0.411t0.411-0.161h1.143q0.25 0 0.411 0.161t0.161 0.411zM13.714 13.143v10.286q0 0.25-0.161 0.411t-0.411 0.161h-1.143q-0.25 0-0.411-0.161t-0.161-0.411v-10.286q0-0.25 0.161-0.411t0.411-0.161h1.143q0.25 0 0.411 0.161t0.161 0.411zM18.286 13.143v10.286q0 0.25-0.161 0.411t-0.411 0.161h-1.143q-0.25 0-0.411-0.161t-0.161-0.411v-10.286q0-0.25 0.161-0.411t0.411-0.161h1.143q0.25 0 0.411 0.161t0.161 0.411zM20.571 26.071v-16.929h-16v16.929q0 0.393 0.125 0.723t0.259 0.482 0.188 0.152h14.857q0.054 0 0.188-0.152t0.259-0.482 0.125-0.723zM8.571 6.857h8l-0.857-2.089q-0.125-0.161-0.304-0.196h-5.661q-0.179 0.036-0.304 0.196zM25.143 7.429v1.143q0 0.25-0.161 0.411t-0.411 0.161h-1.714v16.929q0 1.482-0.839 2.563t-2.018 1.080h-14.857q-1.179 0-2.018-1.045t-0.839-2.527v-17h-1.714q-0.25 0-0.411-0.161t-0.161-0.411v-1.143q0-0.25 0.161-0.411t0.411-0.161h5.518l1.25-2.982q0.268-0.661 0.964-1.125t1.411-0.464h5.714q0.714 0 1.411 0.464t0.964 1.125l1.25 2.982h5.518q0.25 0 0.411 0.161t0.161 0.411z" fill="#000000"/> </symbol><symbol viewBox="0 0 18 32" id="shape-unsorted"><title>unsorted</title> <g id="svgstore82883122d8fec5daaabc8e0b209555cficomoon-ignore"> <line stroke-width="1" x1="" y1="" x2="" y2="" stroke="#449FDB" opacity=""/> </g> <path d="M18.286 19.429q0 0.464-0.339 0.804l-8 8q-0.339 0.339-0.804 0.339t-0.804-0.339l-8-8q-0.339-0.339-0.339-0.804t0.339-0.804 0.804-0.339h16q0.464 0 0.804 0.339t0.339 0.804zM18.286 12.571q0 0.464-0.339 0.804t-0.804 0.339h-16q-0.464 0-0.804-0.339t-0.339-0.804 0.339-0.804l8-8q0.339-0.339 0.804-0.339t0.804 0.339l8 8q0.339 0.339 0.339 0.804z" fill="#000000"/> </symbol><symbol viewBox="0 0 30 32" id="shape-wrench"><title>wrench</title> <g id="svgstoree41097b02472c1867db41af7a7bdf4ccicomoon-ignore"> <line stroke-width="1" x1="" y1="" x2="" y2="" stroke="#449FDB" opacity=""/> </g> <path d="M6.857 26.286q0-0.464-0.339-0.804t-0.804-0.339-0.804 0.339-0.339 0.804 0.339 0.804 0.804 0.339 0.804-0.339 0.339-0.804zM18.357 18.786l-12.179 12.179q-0.661 0.661-1.607 0.661-0.929 0-1.625-0.661l-1.893-1.929q-0.679-0.643-0.679-1.607 0-0.946 0.679-1.625l12.161-12.161q0.696 1.75 2.045 3.098t3.098 2.045zM29.679 11.018q0 0.696-0.411 1.893-0.839 2.393-2.938 3.884t-4.616 1.491q-3.304 0-5.652-2.348t-2.348-5.652 2.348-5.652 5.652-2.348q1.036 0 2.17 0.295t1.92 0.83q0.286 0.196 0.286 0.5t-0.286 0.5l-5.232 3.018v4l3.446 1.911q0.089-0.054 1.411-0.866t2.42-1.446 1.259-0.634q0.268 0 0.42 0.179t0.152 0.446z" fill="#000000"/> </symbol></svg>